<svg xmlns="http://www.w3.org/2000/svg" xmlns:xlink="http://www.w3.org/1999/xlink" width="2179.36" height="1541.77"><g transform="translate(0 0)"><path d="M117.3 537.3h160v-440h-160z" stroke="#000" stroke-width="2" fill="#fff"/><path d="M257.3 365.3c0 6.6-26.88 12-60 12-33.15 0-60-5.4-60-12v-96c0-6.64 26.85-12 60-12 33.12 0 60 5.36 60 12z" stroke="#000" stroke-width="2" fill="#fff"/><path d="M257.3 269.3c0 6.6-26.88 12-60 12-33.15 0-60-5.4-60-12" stroke="#000" stroke-width="2" fill="none"/><use xlink:href="#a" transform="matrix(1,0,0,1,142.2858958068615,286.2858958068615) translate(27.049999999999997 46.6)"/><path d="M257.3 225.3c0 6.6-26.88 12-60 12-33.15 0-60-5.4-60-12v-96c0-6.64 26.85-12 60-12 33.12 0 60 5.36 60 12z" stroke="#000" stroke-width="2" fill="#fff"/><path d="M257.3 129.3c0 6.6-26.88 12-60 12-33.15 0-60-5.4-60-12" stroke="#000" stroke-width="2" fill="none"/><use xlink:href="#b" transform="matrix(1,0,0,1,142.2858958068615,146.28589580686148) translate(38 46.6)"/><path d="M77.3 37.3h240v60h-240z" fill="none"/><use xlink:href="#c" transform="matrix(1,0,0,1,82.2858958068615,42.285895806861504) translate(76.57499999999999 17.799999999999997)"/><use xlink:href="#d" transform="matrix(1,0,0,1,82.2858958068615,42.285895806861504) translate(91.57499999999999 17.799999999999997)"/><use xlink:href="#e" transform="matrix(1,0,0,1,82.2858958068615,42.285895806861504) translate(112.52499999999999 17.799999999999997)"/><use xlink:href="#f" transform="matrix(1,0,0,1,82.2858958068615,42.285895806861504) translate(76.5 39.4)"/><path d="M1817.3 77.5v120h160v-120z" fill="none"/><path d="M1817.3 197.5c4.13 0 7.5-3.37 7.5-7.5v-45c0-4.16 3.34-7.5 7.5-7.5-4.16 0-7.5-3.37-7.5-7.5V85c0-4.16-3.37-7.5-7.5-7.5" stroke="#000" stroke-width="2" fill="none"/><use xlink:href="#g" transform="matrix(1,0,0,1,1844.7858958068614,82.48589580686132) translate(29.025 37)"/><use xlink:href="#h" transform="matrix(1,0,0,1,1844.7858958068614,82.48589580686132) translate(55.025 37)"/><use xlink:href="#i" transform="matrix(1,0,0,1,1844.7858958068614,82.48589580686132) translate(13.049999999999997 58.6)"/><use xlink:href="#j" transform="matrix(1,0,0,1,1844.7858958068614,82.48589580686132) translate(95.95 58.6)"/><use xlink:href="#k" transform="matrix(1,0,0,1,1844.7858958068614,82.48589580686132) translate(31.5 80.20000000000002)"/><path d="M617.3 117.5h160v120h-160z" stroke="#000" stroke-width="2" fill="#fff"/><path d="M633.3 117.5v120m-16-104h160" stroke="#000" stroke-width="2" fill="none"/><use xlink:href="#l" transform="matrix(1,0,0,1,638.2858958068615,138.4858958068613) translate(38.05 50.6)"/><path d="M617.3 257.5h160v120h-160z" stroke="#000" stroke-width="2" fill="#fff"/><path d="M633.3 257.5v120m-16-104h160" stroke="#000" stroke-width="2" fill="none"/><use xlink:href="#l" transform="matrix(1,0,0,1,638.2858958068615,278.4858958068613) translate(38.05 50.6)"/><path d="M1097.3 77.5h160v120h-160z" stroke="#000" stroke-width="2" fill="#fff"/><path d="M1113.3 77.5v120m-16-104h160" stroke="#000" stroke-width="2" fill="none"/><use xlink:href="#l" transform="matrix(1,0,0,1,1118.2858958068614,98.48589580686132) translate(38.05 50.6)"/><path d="M1357.3 397.5h160v120h-160z" stroke="#000" stroke-width="2" fill="#fff"/><use xlink:href="#m" transform="matrix(1,0,0,1,1362.2858958068614,402.4858958068613) translate(10.549999999999997 47.8)"/><use xlink:href="#n" transform="matrix(1,0,0,1,1362.2858958068614,402.4858958068613) translate(85.45 47.8)"/><use xlink:href="#o" transform="matrix(1,0,0,1,1362.2858958068614,402.4858958068613) translate(2.575000000000003 69.4)"/><use xlink:href="#p" transform="matrix(1,0,0,1,1362.2858958068614,402.4858958068613) translate(37.575 69.4)"/><use xlink:href="#q" transform="matrix(1,0,0,1,1362.2858958068614,402.4858958068613) translate(66.575 69.4)"/><use xlink:href="#r" transform="matrix(1,0,0,1,1362.2858958068614,402.4858958068613) translate(119.525 69.4)"/><path d="M1617.3 397.5h160v120h-160z" stroke="#000" stroke-width="2" fill="#fff"/><use xlink:href="#m" transform="matrix(1,0,0,1,1622.2858958068614,402.4858958068613) translate(10.549999999999997 47.8)"/><use xlink:href="#n" transform="matrix(1,0,0,1,1622.2858958068614,402.4858958068613) translate(85.45 47.8)"/><use xlink:href="#o" transform="matrix(1,0,0,1,1622.2858958068614,402.4858958068613) translate(2.575000000000003 69.4)"/><use xlink:href="#p" transform="matrix(1,0,0,1,1622.2858958068614,402.4858958068613) translate(37.575 69.4)"/><use xlink:href="#q" transform="matrix(1,0,0,1,1622.2858958068614,402.4858958068613) translate(66.575 69.4)"/><use xlink:href="#r" transform="matrix(1,0,0,1,1622.2858958068614,402.4858958068613) translate(119.525 69.4)"/><path d="M145.3 1324.5h232v120h-232z" stroke="#000" stroke-width="2" fill="#fff"/><use xlink:href="#s" transform="matrix(1,0,0,1,150.2858958068615,1329.4858958068612) translate(47.55 58.6)"/><path d="M137.3 1444.5h240v60h-240z" fill="none"/><use xlink:href="#t" transform="matrix(1,0,0,1,142.2858958068615,1449.4858958068612) translate(3.1499999999999915 17.799999999999997)"/><use xlink:href="#u" transform="matrix(1,0,0,1,142.2858958068615,1449.4858958068612) translate(80.05 17.799999999999997)"/><use xlink:href="#v" transform="matrix(1,0,0,1,142.2858958068615,1449.4858958068612) translate(125.05 17.799999999999997)"/><use xlink:href="#w" transform="matrix(1,0,0,1,142.2858958068615,1449.4858958068612) translate(189.95 17.799999999999997)"/><use xlink:href="#x" transform="matrix(1,0,0,1,142.2858958068615,1449.4858958068612) translate(83.525 39.4)"/><path d="M1357.3 77.5h160v120h-160z" stroke="#000" stroke-width="2" fill="#fff"/><use xlink:href="#y" transform="matrix(1,0,0,1,1362.2858958068614,82.48589580686132) translate(3.549999999999997 37)"/><use xlink:href="#z" transform="matrix(1,0,0,1,1362.2858958068614,82.48589580686132) translate(62.45 37)"/><use xlink:href="#n" transform="matrix(1,0,0,1,1362.2858958068614,82.48589580686132) translate(92.45 37)"/><use xlink:href="#A" transform="matrix(1,0,0,1,1362.2858958068614,82.48589580686132) translate(9.625 58.6)"/><use xlink:href="#B" transform="matrix(1,0,0,1,1362.2858958068614,82.48589580686132) translate(117.47500000000001 58.6)"/><use xlink:href="#C" transform="matrix(1,0,0,1,1362.2858958068614,82.48589580686132) translate(2.5999999999999943 80.20000000000002)"/><use xlink:href="#z" transform="matrix(1,0,0,1,1362.2858958068614,82.48589580686132) translate(43.49999999999999 80.20000000000002)"/><use xlink:href="#D" transform="matrix(1,0,0,1,1362.2858958068614,82.48589580686132) translate(73.5 80.20000000000002)"/><path d="M1617.3 77.5h160v120h-160z" stroke="#000" stroke-width="2" fill="#fff"/><use xlink:href="#y" transform="matrix(1,0,0,1,1622.2858958068614,82.48589580686132) translate(3.549999999999997 37)"/><use xlink:href="#z" transform="matrix(1,0,0,1,1622.2858958068614,82.48589580686132) translate(62.45 37)"/><use xlink:href="#n" transform="matrix(1,0,0,1,1622.2858958068614,82.48589580686132) translate(92.45 37)"/><use xlink:href="#A" transform="matrix(1,0,0,1,1622.2858958068614,82.48589580686132) translate(9.625 58.6)"/><use xlink:href="#B" transform="matrix(1,0,0,1,1622.2858958068614,82.48589580686132) translate(117.47500000000001 58.6)"/><use xlink:href="#C" transform="matrix(1,0,0,1,1622.2858958068614,82.48589580686132) translate(2.5999999999999943 80.20000000000002)"/><use xlink:href="#z" transform="matrix(1,0,0,1,1622.2858958068614,82.48589580686132) translate(43.49999999999999 80.20000000000002)"/><use xlink:href="#D" transform="matrix(1,0,0,1,1622.2858958068614,82.48589580686132) translate(73.5 80.20000000000002)"/><path d="M1697.3 197.5v199" stroke="#000" stroke-width="2" fill="none"/><path d="M1697.3 396.5l-4.65-14.28h9.27z"/><path d="M1698 397.5h-1.44l-5.3-16.28h12.04zm-3.97-14.28l3.26 10.03 3.24-10.03z"/><path d="M1437.3 197.5v199" stroke="#000" stroke-width="2" fill="none"/><path d="M1437.3 396.5l-4.65-14.28h9.27z"/><path d="M1438 397.5h-1.44l-5.3-16.28h12.04zm-3.97-14.28l3.26 10.03 3.24-10.03z"/><path d="M1697.3 640.5l80 60-80 60-80-60z" stroke="#000" stroke-width="2" fill="#fff"/><use xlink:href="#E" transform="matrix(1,0,0,1,1622.2858958068614,645.4858958068613) translate(31.775 58.6)"/><use xlink:href="#F" transform="matrix(1,0,0,1,1622.2858958068614,645.4858958068613) translate(68.675 58.6)"/><path d="M1697.3 517.5v121.74" stroke="#000" stroke-width="2" fill="none"/><path d="M1697.3 639.24l-4.65-14.27h9.27z"/><path d="M1697.8 640.88l-.5-.4-.53.4-5.5-16.9h12.03zm-3.77-14.9l3.26 10.02 3.24-10.03z"/><path d="M1437.3 517.5v121.74" stroke="#000" stroke-width="2" fill="none"/><path d="M1437.3 639.24l-4.65-14.27h9.27z"/><path d="M1437.8 640.88l-.5-.4-.53.4-5.5-16.9h12.03zm-3.77-14.9l3.26 10.02 3.24-10.03z"/><path d="M709.3 760.7h160v120h-160z" stroke="#000" stroke-width="2" fill="#fff"/><use xlink:href="#G" transform="matrix(1,0,0,1,714.2858958068615,765.6858958068611) translate(24.099999999999994 37)"/><use xlink:href="#H" transform="matrix(1,0,0,1,714.2858958068615,765.6858958068611) translate(101.9 37)"/><use xlink:href="#q" transform="matrix(1,0,0,1,714.2858958068615,765.6858958068611) translate(17.574999999999996 58.6)"/><use xlink:href="#I" transform="matrix(1,0,0,1,714.2858958068615,765.6858958068611) translate(70.525 58.6)"/><use xlink:href="#J" transform="matrix(1,0,0,1,714.2858958068615,765.6858958068611) translate(107.42500000000001 58.6)"/><use xlink:href="#K" transform="matrix(1,0,0,1,714.2858958068615,765.6858958068611) translate(7.575000000000003 80.20000000000002)"/><use xlink:href="#q" transform="matrix(1,0,0,1,714.2858958068615,765.6858958068611) translate(66.575 80.20000000000002)"/><use xlink:href="#L" transform="matrix(1,0,0,1,714.2858958068615,765.6858958068611) translate(119.525 80.20000000000002)"/><path d="M437.3 117.5h60c33.12 0 60 26.85 60 60 0 33.12-26.88 60-60 60h-60z" stroke="#000" stroke-width="2" fill="#fff"/><use xlink:href="#M" transform="matrix(1,0,0,1,442.2858958068615,122.48589580686132) translate(18.549999999999997 47.8)"/><use xlink:href="#N" transform="matrix(1,0,0,1,442.2858958068615,122.48589580686132) translate(70.5 47.8)"/><use xlink:href="#O" transform="matrix(1,0,0,1,442.2858958068615,122.48589580686132) translate(21 69.4)"/><path d="M437.3 257.5h60c33.12 0 60 26.85 60 60 0 33.12-26.88 60-60 60h-60z" stroke="#000" stroke-width="2" fill="#fff"/><use xlink:href="#M" transform="matrix(1,0,0,1,442.2858958068615,262.4858958068613) translate(18.549999999999997 47.8)"/><use xlink:href="#N" transform="matrix(1,0,0,1,442.2858958068615,262.4858958068613) translate(70.5 47.8)"/><use xlink:href="#O" transform="matrix(1,0,0,1,442.2858958068615,262.4858958068613) translate(21 69.4)"/><path d="M257.3 177.3h89.5v.2h89.5" stroke="#000" stroke-width="2" fill="none"/><path d="M436.3 177.5L422 182.1v-9.27z"/><path d="M437.3 176.76v1.45L421 183.5v-12.03zM423 180.74l10.03-3.25-10.03-3.27z"/><path d="M557.3 177.5h59" stroke="#000" stroke-width="2" fill="none"/><path d="M557.3 178.5h-.06l.05-1-.05-1h.04zM616.28 177.5l-14.26 4.62v-9.27z"/><path d="M617.3 176.76v1.45L601 183.5v-12.03zM603 180.74l10.03-3.25-10.03-3.27z"/><path d="M257.3 317.3h89.5v.2h89.5" stroke="#000" stroke-width="2" fill="none"/><path d="M436.3 317.5L422 322.1v-9.27z"/><path d="M437.3 316.76v1.45L421 323.5v-12.03zM423 320.74l10.03-3.25-10.03-3.27z"/><path d="M557.3 317.5h59" stroke="#000" stroke-width="2" fill="none"/><path d="M557.3 318.5h-.06l.05-1-.05-1h.04zM616.3 317.5L602 322.1v-9.27z"/><path d="M617.3 316.76v1.45L601 323.5v-12.03zM603 320.74l10.03-3.25-10.03-3.27z"/><path d="M1257.3 137.5h100" stroke="#000" stroke-width="2" fill="none"/><path d="M1357.3 137.5L1343 142.1v-9.27z"/><path d="M1357.3 136.43v2.1L1342 143.5v-12.03zm-13.28 4.3l10.03-3.24-10.03-3.27z"/><path d="M877.3 77.5h160v120h-160z" stroke="#000" stroke-width="2" fill="#fff"/><use xlink:href="#P" transform="matrix(1,0,0,1,882.2858958068615,82.48589580686132) translate(38.099999999999994 37)"/><use xlink:href="#Q" transform="matrix(1,0,0,1,882.2858958068615,82.48589580686132) translate(94 37)"/><use xlink:href="#R" transform="matrix(1,0,0,1,882.2858958068615,82.48589580686132) translate(6.150000000000006 58.6)"/><use xlink:href="#S" transform="matrix(1,0,0,1,882.2858958068615,82.48589580686132) translate(85.95 58.6)"/><use xlink:href="#T" transform="matrix(1,0,0,1,882.2858958068615,82.48589580686132) translate(50.525 80.20000000000002)"/><path d="M1037.3 137.5h59" stroke="#000" stroke-width="2" fill="none"/><path d="M1096.3 137.5L1082 142.1v-9.27z"/><path d="M1097.3 136.76v1.45l-16.28 5.3v-12.03zm-14.28 3.98l10.03-3.25-10.03-3.27z"/><path d="M1357.3 897.5h160v120h-160z" stroke="#000" stroke-width="2" fill="#fff"/><use xlink:href="#U" transform="matrix(1,0,0,1,1362.2858958068614,902.4858958068613) translate(36.025 47.8)"/><use xlink:href="#V" transform="matrix(1,0,0,1,1362.2858958068614,902.4858958068613) translate(66.975 47.8)"/><use xlink:href="#W" transform="matrix(1,0,0,1,1362.2858958068614,902.4858958068613) translate(35.55 69.4)"/><path d="M1109.3 750.7l90 70-90 70-90-70z" stroke="#000" stroke-width="2" fill="#fff"/><use xlink:href="#X" transform="matrix(1,0,0,1,1024.2858958068614,755.6858958068611) translate(17.57499999999999 57.8)"/><use xlink:href="#Y" transform="matrix(1,0,0,1,1024.2858958068614,755.6858958068611) translate(73.52499999999999 57.8)"/><use xlink:href="#Z" transform="matrix(1,0,0,1,1024.2858958068614,755.6858958068611) translate(24.549999999999997 79.4)"/><use xlink:href="#aa" transform="matrix(1,0,0,1,1024.2858958068614,755.6858958068611) translate(61.5 79.4)"/><path d="M449.3 760.7h160v120h-160z" stroke="#000" stroke-width="2" fill="#fff"/><use xlink:href="#U" transform="matrix(1,0,0,1,454.2858958068615,765.6858958068611) translate(34.575 47.8)"/><use xlink:href="#ab" transform="matrix(1,0,0,1,454.2858958068615,765.6858958068611) translate(65.525 47.8)"/><use xlink:href="#W" transform="matrix(1,0,0,1,454.2858958068615,765.6858958068611) translate(35.55 69.4)"/><path d="M1437.3 640.5l80 60-80 60-80-60z" stroke="#000" stroke-width="2" fill="#fff"/><use xlink:href="#E" transform="matrix(1,0,0,1,1362.2858958068614,645.4858958068613) translate(31.775 58.6)"/><use xlink:href="#F" transform="matrix(1,0,0,1,1362.2858958068614,645.4858958068613) translate(68.675 58.6)"/><path d="M1019.3 820.7h-149" stroke="#000" stroke-width="2" fill="none"/><path d="M1019.3 820.7l1.27 1h-1.28v-2h1.27zM884.55 825.32l-14.26-4.63 14.25-4.65z"/><path d="M885.55 826.7l-16.26-5.3v-1.44l16.25-5.3zm-12.03-6l10.03 3.24v-6.5z"/><path fill="#fff" d="M930.1 809.9h29.37v21.6H930.1z"/><use xlink:href="#ac" transform="matrix(1,0,0,1,930.1108958068614,809.8858958068612) translate(0 14.4)"/><path d="M709.3 820.7h-99" stroke="#000" stroke-width="2" fill="none"/><path d="M624.55 825.32l-14.26-4.63 14.25-4.65z"/><path d="M625.55 826.7l-16.26-5.3v-1.44l16.25-5.3zm-12.03-6l10.03 3.24v-6.5z"/><path d="M181.3 1074.5h160v120h-160z" stroke="#000" stroke-width="2" fill="#fff"/><use xlink:href="#ad" transform="matrix(1,0,0,1,186.2858958068615,1079.4858958068612) translate(28.049999999999997 37)"/><use xlink:href="#ab" transform="matrix(1,0,0,1,186.2858958068615,1079.4858958068612) translate(72.05 37)"/><use xlink:href="#ae" transform="matrix(1,0,0,1,186.2858958068615,1079.4858958068612) translate(10.174999999999997 58.6)"/><use xlink:href="#af" transform="matrix(1,0,0,1,186.2858958068615,1079.4858958068612) translate(83.97500000000001 58.6)"/><use xlink:href="#ag" transform="matrix(1,0,0,1,186.2858958068615,1079.4858958068612) translate(109.825 58.6)"/><use xlink:href="#ah" transform="matrix(1,0,0,1,186.2858958068615,1079.4858958068612) translate(46.574999999999996 80.20000000000002)"/><path d="M1437.3 760.5v136" stroke="#000" stroke-width="2" fill="none"/><path d="M1437.3 760.5h-1v-.76zm1 0h-1l1-.76zM1437.3 896.5l-4.65-14.28h9.27z"/><path d="M1438 897.5h-1.44l-5.3-16.28h12.04zm-3.97-14.28l3.26 10.03 3.24-10.03z"/><path fill="#fff" d="M1422.6 817.7h29.37v21.6h-29.36z"/><use xlink:href="#ac" transform="matrix(1,0,0,1,1422.6108958068614,817.6858958068614) translate(0 14.4)"/><path d="M1617.3 897.5h160v120h-160z" stroke="#000" stroke-width="2" fill="#fff"/><use xlink:href="#U" transform="matrix(1,0,0,1,1622.2858958068614,902.4858958068613) translate(36.025 47.8)"/><use xlink:href="#V" transform="matrix(1,0,0,1,1622.2858958068614,902.4858958068613) translate(66.975 47.8)"/><use xlink:href="#W" transform="matrix(1,0,0,1,1622.2858958068614,902.4858958068613) translate(35.55 69.4)"/><path d="M1109.3 930.5l90 70-90 70-90-70z" stroke="#000" stroke-width="2" fill="#fff"/><use xlink:href="#X" transform="matrix(1,0,0,1,1024.2858958068614,935.4858958068612) translate(17.57499999999999 57.8)"/><use xlink:href="#Y" transform="matrix(1,0,0,1,1024.2858958068614,935.4858958068612) translate(73.52499999999999 57.8)"/><use xlink:href="#Z" transform="matrix(1,0,0,1,1024.2858958068614,935.4858958068612) translate(24.549999999999997 79.4)"/><use xlink:href="#aa" transform="matrix(1,0,0,1,1024.2858958068614,935.4858958068612) translate(61.5 79.4)"/><path d="M1357.3 957.5h-79V820.7h-79" stroke="#000" stroke-width="2" fill="none"/><path d="M1213.55 825.32l-14.26-4.63 14.25-4.65z"/><path d="M1214.55 826.7l-16.22-5.27.96-.74-.97-.76 16.22-5.27zm-12.03-6l10.03 3.24v-6.5z"/><path d="M1697.3 760.5v136" stroke="#000" stroke-width="2" fill="none"/><path d="M1697.3 760.5h-1v-.76zm1 0h-1l1-.76zM1697.3 896.5l-4.65-14.28h9.27z"/><path d="M1698 897.5h-1.44l-5.3-16.28h12.04zm-3.97-14.28l3.26 10.03 3.24-10.03z"/><path fill="#fff" d="M1682.6 817.7h29.37v21.6h-29.36z"/><g><use xlink:href="#ac" transform="matrix(1,0,0,1,1682.6108958068614,817.6858958068614) translate(0 14.4)"/></g><path d="M1697.3 1017.5v40h-458v-57h-40" stroke="#000" stroke-width="2" fill="none"/><path d="M1213.55 1005.12l-14.26-4.63 14.25-4.65z"/><path d="M1214.55 1006.5l-16.22-5.27.96-.74-.97-.76 16.22-5.27zm-12.03-6l10.03 3.24v-6.5z"/><path d="M709.3 940.7h160v120h-160z" stroke="#000" stroke-width="2" fill="#fff"/><g><use xlink:href="#G" transform="matrix(1,0,0,1,714.2858958068615,945.6858958068613) translate(24.099999999999994 37)"/><use xlink:href="#H" transform="matrix(1,0,0,1,714.2858958068615,945.6858958068613) translate(101.9 37)"/><use xlink:href="#q" transform="matrix(1,0,0,1,714.2858958068615,945.6858958068613) translate(17.574999999999996 58.6)"/><use xlink:href="#I" transform="matrix(1,0,0,1,714.2858958068615,945.6858958068613) translate(70.525 58.6)"/><use xlink:href="#J" transform="matrix(1,0,0,1,714.2858958068615,945.6858958068613) translate(107.42500000000001 58.6)"/><use xlink:href="#K" transform="matrix(1,0,0,1,714.2858958068615,945.6858958068613) translate(7.575000000000003 80.20000000000002)"/><use xlink:href="#q" transform="matrix(1,0,0,1,714.2858958068615,945.6858958068613) translate(66.575 80.20000000000002)"/><use xlink:href="#L" transform="matrix(1,0,0,1,714.2858958068615,945.6858958068613) translate(119.525 80.20000000000002)"/></g><path d="M1019.3 1000.5h-74.5v.2h-74.5" stroke="#000" stroke-width="2" fill="none"/><path d="M1019.3 1000.5l1.27 1h-1.28v-2h1.27zM884.55 1005.32l-14.26-4.63 14.25-4.65z"/><path d="M885.55 1006.7l-16.26-5.3v-1.44l16.25-5.3zm-12.03-6l10.03 3.24v-6.5z"/><path fill="#fff" d="M930.1 989.8h29.37v21.6H930.1z"/><g><use xlink:href="#ac" transform="matrix(1,0,0,1,930.1108958068614,989.7858958068612) translate(0 14.4)"/></g><path d="M449.3 940.7h160v120h-160z" stroke="#000" stroke-width="2" fill="#fff"/><g><use xlink:href="#U" transform="matrix(1,0,0,1,454.2858958068615,945.6858958068613) translate(34.575 47.8)"/><use xlink:href="#ab" transform="matrix(1,0,0,1,454.2858958068615,945.6858958068613) translate(65.525 47.8)"/><use xlink:href="#W" transform="matrix(1,0,0,1,454.2858958068615,945.6858958068613) translate(35.55 69.4)"/></g><path d="M709.3 1000.7h-100" stroke="#000" stroke-width="2" fill="none"/><path d="M623.55 1005.32l-14.26-4.63 14.25-4.65z"/><path d="M624.55 1006.7l-15.26-4.96v-2.1l15.25-4.97zm-12.03-6l10.03 3.24v-6.5z"/><path d="M261.3 817.5l105 90-105 90-105-90z" stroke="#000" stroke-width="2" fill="#fff"/><g><use xlink:href="#ai" transform="matrix(1,0,0,1,161.2858958068615,822.4858958068613) translate(17.674999999999997 77.8)"/><use xlink:href="#A" transform="matrix(1,0,0,1,161.2858958068615,822.4858958068613) translate(42.574999999999996 77.8)"/><use xlink:href="#aj" transform="matrix(1,0,0,1,161.2858958068615,822.4858958068613) translate(150.425 77.8)"/><use xlink:href="#ak" transform="matrix(1,0,0,1,161.2858958068615,822.4858958068613) translate(19.07499999999999 99.4)"/><use xlink:href="#al" transform="matrix(1,0,0,1,161.2858958068615,822.4858958068613) translate(120.975 99.4)"/></g><path d="M297.3 397.5v140h120v-140z" fill="none"/><path d="M297.3 537.5c4.82 0 8.74-3.93 8.74-8.76v-52.5c0-4.84 3.9-8.75 8.75-8.75-4.85 0-8.76-3.93-8.76-8.76v-52.5c0-4.84-3.92-8.75-8.75-8.75" stroke="#000" stroke-width="2" fill="none"/><g><use xlink:href="#am" transform="matrix(1,0,0,1,328.5358958068615,402.48589580686127) translate(1.5249999999999986 36.19999999999999)"/><use xlink:href="#an" transform="matrix(1,0,0,1,328.5358958068615,402.48589580686127) translate(38.525 36.19999999999999)"/><use xlink:href="#ao" transform="matrix(1,0,0,1,328.5358958068615,402.48589580686127) translate(21.525 57.79999999999999)"/><use xlink:href="#ap" transform="matrix(1,0,0,1,328.5358958068615,402.48589580686127) translate(2.0249999999999986 79.4)"/><use xlink:href="#aq" transform="matrix(1,0,0,1,328.5358958068615,402.48589580686127) translate(8 101)"/></g><path d="M777.3 177.5h50v-40h50" stroke="#000" stroke-width="2" fill="none"/><path d="M877.3 137.5L863 142.1v-9.27z"/><path d="M877.3 136.43v2.1L862 143.5v-12.03zm-13.28 4.3l10.03-3.24-10.03-3.27z"/><path d="M777.3 317.5h180v-120" stroke="#000" stroke-width="2" fill="none"/><path d="M961.92 211.75h-9.27l4.64-14.26z"/><path d="M963.3 212.75h-12.03l4.96-15.26h2.1zm-9.27-2h6.5l-3.24-10.03z"/><path d="M1109.3 750.7V644h-912V537.3" stroke="#000" stroke-width="2" fill="none"/><path d="M1110.3 751.46l-1-.77-1 .76v-.77h2zM201.92 551.55h-9.27l4.64-14.26z"/><path d="M203.3 552.55h-12.03l4.96-15.26h2.1zm-9.27-2h6.5l-3.24-10.03z"/><path fill="#fff" d="M641.8 633.2h22.97v21.6H641.8z"/><g><use xlink:href="#ar" transform="matrix(1,0,0,1,641.8108958068614,633.1858958068614) translate(0 14.4)"/></g><path d="M1357.3 700.5h-1160V537.3" stroke="#000" stroke-width="2" fill="none"/><path d="M1357.3 700.5l1.32 1h-1.33v-2h1.32zM201.92 551.55h-9.27l4.64-14.26z"/><path d="M203.3 552.55h-12.03l4.96-15.26h2.1zm-9.27-2h6.5l-3.24-10.03z"/><path fill="#fff" d="M638.95 689.7h22.96v21.6h-22.95z"/><g><use xlink:href="#ar" transform="matrix(1,0,0,1,638.9501708136752,689.6858958068614) translate(0 14.4)"/></g><path d="M1617.3 700.5h-100" stroke="#000" stroke-width="2" fill="none"/><path d="M1617.3 700.5l1.32 1h-1.33v-2h1.32zM1517.3 701.5h-1.35l1.34-1-1.35-1h1.34z"/><path fill="#fff" d="M1555.8 689.7h22.97v21.6h-22.96z"/><g><use xlink:href="#ar" transform="matrix(1,0,0,1,1555.8108958068615,689.6858958068614) translate(0 14.4)"/></g><path d="M261.3 997.5v77" stroke="#000" stroke-width="2" fill="none"/><path d="M261.3 997.5h-1v-.87zm1 0h-1l1-.87zM261.3 1074.5l-4.65-14.28h9.27z"/><path d="M262.34 1074.5h-2.1l-4.97-15.28h12.03zm-4.3-13.28l3.25 10.03 3.24-10.03z"/><path fill="#fff" d="M246.6 1025.2h29.37v21.6H246.6z"/><g><use xlink:href="#ac" transform="matrix(1,0,0,1,246.6108958068615,1025.1858958068613) translate(0 14.4)"/></g><path d="M449.3 820.7h-41.5v86.8h-41.5" stroke="#000" stroke-width="2" fill="none"/><path d="M380.55 912.12l-14.26-4.63 14.25-4.65z"/><path d="M381.55 913.5l-16.15-5.25.9-.76-.9-.78 16.15-5.25zm-12.03-6l10.03 3.24v-6.5z"/><path d="M449.3 1000.7h-41.5v-93.2h-41.5" stroke="#000" stroke-width="2" fill="none"/><path d="M380.55 912.12l-14.26-4.63 14.25-4.65z"/><path d="M381.55 913.5l-16.15-5.25.9-.76-.9-.78 16.15-5.25zm-12.03-6l10.03 3.24v-6.5z"/><path d="M261.3 1194.5v129" stroke="#000" stroke-width="2" fill="none"/><path d="M261.3 1323.5l-4.65-14.28h9.27z"/><path d="M262 1324.5h-1.44l-5.3-16.28h12.04zm-3.97-14.28l3.26 10.03 3.24-10.03z"/><path d="M237.3 457.5c0 22.08-17.92 40-40 40-22.1 0-40-17.92-40-40 0-22.1 17.9-40 40-40 22.08 0 40 17.9 40 40z" stroke="#000" stroke-width="2" fill="#fff"/><g><use xlink:href="#as" transform="matrix(1,0,0,1,162.2858958068615,422.4858958068613) translate(29 38.6)"/></g><path d="M117.3 1134.5c0 22.08-17.92 40-40 40-22.1 0-40-17.92-40-40 0-22.1 17.9-40 40-40 22.08 0 40 17.9 40 40z" stroke="#000" stroke-width="2" fill="#fff"/><g><use xlink:href="#as" transform="matrix(1,0,0,1,42.285895806861504,1099.4858958068612) translate(29 38.6)"/></g><path d="M181.3 1134.5h-63" stroke="#000" stroke-width="2" fill="none"/><path d="M132.55 1139.12l-14.26-4.63 14.25-4.65z"/><path d="M133.55 1140.5l-16.3-5.3.04-.7-.04-.73 16.3-5.3zm-12.03-6l10.03 3.24v-6.5z"/><defs><path d="M212-179c-10-28-35-45-73-45-59 0-87 40-87 99 0 60 29 101 89 101 43 0 62-24 78-52l27 14C228-24 195 4 139 4 59 4 22-46 18-125c-6-104 99-153 187-111 19 9 31 26 39 46" id="at"/><path d="M100-194c62-1 85 37 85 99 1 63-27 99-86 99S16-35 15-95c0-66 28-99 85-99zM99-20c44 1 53-31 53-75 0-43-8-75-51-75s-53 32-53 75 10 74 51 75" id="au"/><path d="M117-194c89-4 53 116 60 194h-32v-121c0-31-8-49-39-48C34-167 62-67 57 0H25l-1-190h30c1 10-1 24 2 32 11-22 29-35 61-36" id="av"/><path d="M135-143c-3-34-86-38-87 0 15 53 115 12 119 90S17 21 10-45l28-5c4 36 97 45 98 0-10-56-113-15-118-90-4-57 82-63 122-42 12 7 21 19 24 35" id="aw"/><path d="M84 4C-5 8 30-112 23-190h32v120c0 31 7 50 39 49 72-2 45-101 50-169h31l1 190h-30c-1-10 1-25-2-33-11 22-28 36-60 37" id="ax"/><path d="M24 0v-261h32V0H24" id="ay"/><g id="a"><use transform="matrix(0.05,0,0,0.05,0,0)" xlink:href="#at"/><use transform="matrix(0.05,0,0,0.05,12.950000000000001,0)" xlink:href="#au"/><use transform="matrix(0.05,0,0,0.05,22.950000000000003,0)" xlink:href="#av"/><use transform="matrix(0.05,0,0,0.05,32.95,0)" xlink:href="#aw"/><use transform="matrix(0.05,0,0,0.05,41.95,0)" xlink:href="#ax"/><use transform="matrix(0.05,0,0,0.05,51.95,0)" xlink:href="#ay"/></g><path d="M100-194c63 0 86 42 84 106H49c0 40 14 67 53 68 26 1 43-12 49-29l28 8c-11 28-37 45-77 45C44 4 14-33 15-96c1-61 26-98 85-98zm52 81c6-60-76-77-97-28-3 7-6 17-6 28h103" id="az"/><path d="M59-47c-2 24 18 29 38 22v24C64 9 27 4 27-40v-127H5v-23h24l9-43h21v43h35v23H59v120" id="aA"/><path d="M96-169c-40 0-48 33-48 73s9 75 48 75c24 0 41-14 43-38l32 2c-6 37-31 61-74 61-59 0-76-41-82-99-10-93 101-131 147-64 4 7 5 14 7 22l-32 3c-4-21-16-35-41-35" id="aB"/><path d="M85-194c31 0 48 13 60 33l-1-100h32l1 261h-30c-2-10 0-23-3-31C134-8 116 4 85 4 32 4 16-35 15-94c0-66 23-100 70-100zm9 24c-40 0-46 34-46 75 0 40 6 74 45 74 42 0 51-32 51-76 0-42-9-74-50-73" id="aC"/><g id="b"><use transform="matrix(0.05,0,0,0.05,0,0)" xlink:href="#az"/><use transform="matrix(0.05,0,0,0.05,10,0)" xlink:href="#aA"/><use transform="matrix(0.05,0,0,0.05,15,0)" xlink:href="#aB"/><use transform="matrix(0.05,0,0,0.05,24,0)" xlink:href="#aC"/></g><path d="M27 0v-27h64v-190l-56 39v-29l58-41h29v221h61V0H27" id="aD"/><g id="c"><use transform="matrix(0.05,0,0,0.05,0,0)" xlink:href="#aD"/><path d="M-.9 1.25h16.8v1.32H-.9z"/></g><path d="M114-163C36-179 61-72 57 0H25l-1-190h30c1 12-1 29 2 39 6-27 23-49 58-41v29" id="aE"/><g id="d"><use transform="matrix(0.05,0,0,0.05,0,0)" xlink:href="#au"/><use transform="matrix(0.05,0,0,0.05,10,0)" xlink:href="#aE"/><path d="M-.9 1.25h22.75v1.32H-.9z"/></g><path d="M210-169c-67 3-38 105-44 169h-31v-121c0-29-5-50-35-48C34-165 62-65 56 0H25l-1-190h30c1 10-1 24 2 32 10-44 99-50 107 0 11-21 27-35 58-36 85-2 47 119 55 194h-31v-121c0-29-5-49-35-48" id="aF"/><g id="e"><use transform="matrix(0.05,0,0,0.05,0,0)" xlink:href="#aF"/><use transform="matrix(0.05,0,0,0.05,14.950000000000001,0)" xlink:href="#au"/><use transform="matrix(0.05,0,0,0.05,24.950000000000003,0)" xlink:href="#aE"/><use transform="matrix(0.05,0,0,0.05,30.900000000000002,0)" xlink:href="#az"/><path d="M-.9 1.25h42.7v1.32H-.9z"/></g><path d="M115-194c53 0 69 39 70 98 0 66-23 100-70 100C84 3 66-7 56-30L54 0H23l1-261h32v101c10-23 28-34 59-34zm-8 174c40 0 45-34 45-75 0-40-5-75-45-74-42 0-51 32-51 76 0 43 10 73 51 73" id="aG"/><path d="M141-36C126-15 110 5 73 4 37 3 15-17 15-53c-1-64 63-63 125-63 3-35-9-54-41-54-24 1-41 7-42 31l-33-3c5-37 33-52 76-52 45 0 72 20 72 64v82c-1 20 7 32 28 27v20c-31 9-61-2-59-35zM48-53c0 20 12 33 32 33 41-3 63-29 60-74-43 2-92-5-92 41" id="aH"/><path d="M143 0L79-87 56-68V0H24v-261h32v163l83-92h37l-77 82L181 0h-38" id="aI"/><g id="f"><use transform="matrix(0.05,0,0,0.05,0,0)" xlink:href="#aG"/><use transform="matrix(0.05,0,0,0.05,10,0)" xlink:href="#aH"/><use transform="matrix(0.05,0,0,0.05,20,0)" xlink:href="#aB"/><use transform="matrix(0.05,0,0,0.05,29,0)" xlink:href="#aI"/><use transform="matrix(0.05,0,0,0.05,38,0)" xlink:href="#az"/><use transform="matrix(0.05,0,0,0.05,48,0)" xlink:href="#av"/><use transform="matrix(0.05,0,0,0.05,58,0)" xlink:href="#aC"/><use transform="matrix(0.05,0,0,0.05,68,0)" xlink:href="#aw"/><path d="M-.9 1.25h78.8v1.32H-.9z"/></g><path d="M205 0l-28-72H64L36 0H1l101-248h38L239 0h-34zm-38-99l-47-123c-12 45-31 82-46 123h93" id="aJ"/><g id="g"><use transform="matrix(0.05,0,0,0.05,0,0)" xlink:href="#aJ"/><use transform="matrix(0.05,0,0,0.05,12,0)" xlink:href="#aw"/></g><path d="M179-190L93 31C79 59 56 82 12 73V49c39 6 53-20 64-50L1-190h34L92-34l54-156h33" id="aK"/><g id="h"><use transform="matrix(0.05,0,0,0.05,0,0)" xlink:href="#aF"/><use transform="matrix(0.05,0,0,0.05,14.950000000000001,0)" xlink:href="#aH"/><use transform="matrix(0.05,0,0,0.05,24.950000000000003,0)" xlink:href="#av"/><use transform="matrix(0.05,0,0,0.05,34.95,0)" xlink:href="#aK"/></g><path d="M115-194c55 1 70 41 70 98S169 2 115 4C84 4 66-9 55-30l1 105H24l-1-265h31l2 30c10-21 28-34 59-34zm-8 174c40 0 45-34 45-75s-6-73-45-74c-42 0-51 32-51 76 0 43 10 73 51 73" id="aL"/><g id="i"><use transform="matrix(0.05,0,0,0.05,0,0)" xlink:href="#aA"/><use transform="matrix(0.05,0,0,0.05,5,0)" xlink:href="#az"/><use transform="matrix(0.05,0,0,0.05,15,0)" xlink:href="#aF"/><use transform="matrix(0.05,0,0,0.05,29.950000000000003,0)" xlink:href="#aL"/><use transform="matrix(0.05,0,0,0.05,39.95,0)" xlink:href="#ay"/><use transform="matrix(0.05,0,0,0.05,43.900000000000006,0)" xlink:href="#aH"/><use transform="matrix(0.05,0,0,0.05,53.900000000000006,0)" xlink:href="#aA"/><use transform="matrix(0.05,0,0,0.05,58.900000000000006,0)" xlink:href="#az"/><use transform="matrix(0.05,0,0,0.05,68.9,0)" xlink:href="#aw"/></g><g id="j"><use transform="matrix(0.05,0,0,0.05,0,0)" xlink:href="#aH"/><use transform="matrix(0.05,0,0,0.05,10,0)" xlink:href="#aw"/></g><path d="M33 0v-38h34V0H33" id="aM"/><g id="k"><use transform="matrix(0.05,0,0,0.05,0,0)" xlink:href="#av"/><use transform="matrix(0.05,0,0,0.05,10,0)" xlink:href="#az"/><use transform="matrix(0.05,0,0,0.05,20,0)" xlink:href="#az"/><use transform="matrix(0.05,0,0,0.05,30,0)" xlink:href="#aC"/><use transform="matrix(0.05,0,0,0.05,40,0)" xlink:href="#az"/><use transform="matrix(0.05,0,0,0.05,50,0)" xlink:href="#aC"/><use transform="matrix(0.05,0,0,0.05,60,0)" xlink:href="#aM"/></g><path d="M108 0H70L1-190h34L89-25l56-165h34" id="aN"/><g id="l"><use transform="matrix(0.05,0,0,0.05,0,0)" xlink:href="#aF"/><use transform="matrix(0.05,0,0,0.05,14.950000000000001,0)" xlink:href="#az"/><use transform="matrix(0.05,0,0,0.05,24.950000000000003,0)" xlink:href="#aF"/><use transform="matrix(0.05,0,0,0.05,39.900000000000006,0)" xlink:href="#aI"/><use transform="matrix(0.05,0,0,0.05,48.900000000000006,0)" xlink:href="#aN"/></g><g id="m"><use transform="matrix(0.05,0,0,0.05,0,0)" xlink:href="#aB"/><use transform="matrix(0.05,0,0,0.05,9,0)" xlink:href="#au"/><use transform="matrix(0.05,0,0,0.05,19,0)" xlink:href="#aF"/><use transform="matrix(0.05,0,0,0.05,33.95,0)" xlink:href="#aL"/><use transform="matrix(0.05,0,0,0.05,43.95,0)" xlink:href="#aH"/><use transform="matrix(0.05,0,0,0.05,53.95,0)" xlink:href="#aE"/><use transform="matrix(0.05,0,0,0.05,59.900000000000006,0)" xlink:href="#az"/></g><path d="M177-190C167-65 218 103 67 71c-23-6-38-20-44-43l32-5c15 47 100 32 89-28v-30C133-14 115 1 83 1 29 1 15-40 15-95c0-56 16-97 71-98 29-1 48 16 59 35 1-10 0-23 2-32h30zM94-22c36 0 50-32 50-73 0-42-14-75-50-75-39 0-46 34-46 75s6 73 46 73" id="aO"/><g id="n"><use transform="matrix(0.05,0,0,0.05,0,0)" xlink:href="#aw"/><use transform="matrix(0.05,0,0,0.05,9,0)" xlink:href="#aA"/><use transform="matrix(0.05,0,0,0.05,14,0)" xlink:href="#aH"/><use transform="matrix(0.05,0,0,0.05,24,0)" xlink:href="#aO"/><use transform="matrix(0.05,0,0,0.05,34,0)" xlink:href="#az"/><use transform="matrix(0.05,0,0,0.05,44,0)" xlink:href="#aC"/></g><g id="o"><use transform="matrix(0.05,0,0,0.05,0,0)" xlink:href="#aH"/><use transform="matrix(0.05,0,0,0.05,10,0)" xlink:href="#av"/><use transform="matrix(0.05,0,0,0.05,20,0)" xlink:href="#aC"/></g><g id="p"><use transform="matrix(0.05,0,0,0.05,0,0)" xlink:href="#aC"/><use transform="matrix(0.05,0,0,0.05,10,0)" xlink:href="#aw"/><use transform="matrix(0.05,0,0,0.05,19,0)" xlink:href="#aA"/></g><path d="M101-234c-31-9-42 10-38 44h38v23H63V0H32v-167H5v-23h27c-7-52 17-82 69-68v24" id="aP"/><path d="M24-231v-30h32v30H24zM24 0v-190h32V0H24" id="aQ"/><g id="q"><use transform="matrix(0.05,0,0,0.05,0,0)" xlink:href="#aB"/><use transform="matrix(0.05,0,0,0.05,9,0)" xlink:href="#au"/><use transform="matrix(0.05,0,0,0.05,19,0)" xlink:href="#av"/><use transform="matrix(0.05,0,0,0.05,29,0)" xlink:href="#aP"/><use transform="matrix(0.05,0,0,0.05,34,0)" xlink:href="#aQ"/><use transform="matrix(0.05,0,0,0.05,37.95,0)" xlink:href="#aO"/></g><g id="r"><use transform="matrix(0.05,0,0,0.05,0,0)" xlink:href="#aP"/><use transform="matrix(0.05,0,0,0.05,5,0)" xlink:href="#aQ"/><use transform="matrix(0.05,0,0,0.05,8.95,0)" xlink:href="#ay"/><use transform="matrix(0.05,0,0,0.05,12.899999999999999,0)" xlink:href="#az"/><use transform="matrix(0.05,0,0,0.05,22.9,0)" xlink:href="#aM"/></g><path d="M106-169C34-169 62-67 57 0H25v-261h32l-1 103c12-21 28-36 61-36 89 0 53 116 60 194h-32v-121c2-32-8-49-39-48" id="aR"/><path d="M141 0L90-78 38 0H4l68-98-65-92h35l48 74 47-74h35l-64 92 68 98h-35" id="aS"/><path d="M0 4l72-265h28L28 4H0" id="aT"/><g id="s"><use transform="matrix(0.05,0,0,0.05,0,0)" xlink:href="#aR"/><use transform="matrix(0.05,0,0,0.05,10,0)" xlink:href="#aH"/><use transform="matrix(0.05,0,0,0.05,20,0)" xlink:href="#aL"/><use transform="matrix(0.05,0,0,0.05,30,0)" xlink:href="#aE"/><use transform="matrix(0.05,0,0,0.05,35.95,0)" xlink:href="#au"/><use transform="matrix(0.05,0,0,0.05,45.95,0)" xlink:href="#aS"/><use transform="matrix(0.05,0,0,0.05,54.95,0)" xlink:href="#aK"/><use transform="matrix(0.05,0,0,0.05,63.95,0)" xlink:href="#aT"/><use transform="matrix(0.05,0,0,0.05,68.95,0)" xlink:href="#av"/><use transform="matrix(0.05,0,0,0.05,78.95,0)" xlink:href="#aO"/><use transform="matrix(0.05,0,0,0.05,88.95,0)" xlink:href="#aQ"/><use transform="matrix(0.05,0,0,0.05,92.9,0)" xlink:href="#av"/><use transform="matrix(0.05,0,0,0.05,102.9,0)" xlink:href="#aS"/><use transform="matrix(0.05,0,0,0.05,111.9,0)" xlink:href="#aM"/><use transform="matrix(0.05,0,0,0.05,116.9,0)" xlink:href="#aM"/><use transform="matrix(0.05,0,0,0.05,121.9,0)" xlink:href="#aM"/></g><path d="M140-251c81 0 123 46 123 126C263-46 219 4 140 4 59 4 17-45 17-125s42-126 123-126zm0 227c63 0 89-41 89-101s-29-99-89-99c-61 0-89 39-89 99S79-25 140-24" id="aU"/><path d="M33-154v-36h34v36H33zM33 0v-36h34V0H33" id="aV"/><g id="t"><use transform="matrix(0.05,0,0,0.05,0,0)" xlink:href="#aU"/><use transform="matrix(0.05,0,0,0.05,14,0)" xlink:href="#aL"/><use transform="matrix(0.05,0,0,0.05,24,0)" xlink:href="#aA"/><use transform="matrix(0.05,0,0,0.05,29,0)" xlink:href="#aQ"/><use transform="matrix(0.05,0,0,0.05,32.95,0)" xlink:href="#au"/><use transform="matrix(0.05,0,0,0.05,42.95,0)" xlink:href="#av"/><use transform="matrix(0.05,0,0,0.05,52.95,0)" xlink:href="#aH"/><use transform="matrix(0.05,0,0,0.05,62.95,0)" xlink:href="#ay"/><use transform="matrix(0.05,0,0,0.05,66.9,0)" xlink:href="#aV"/></g><path d="M30 0v-248h33v221h125V0H30" id="aW"/><g id="u"><use transform="matrix(0.05,0,0,0.05,0,0)" xlink:href="#aW"/><use transform="matrix(0.05,0,0,0.05,10,0)" xlink:href="#au"/><use transform="matrix(0.05,0,0,0.05,20,0)" xlink:href="#av"/><use transform="matrix(0.05,0,0,0.05,30,0)" xlink:href="#aO"/></g><g id="v"><use transform="matrix(0.05,0,0,0.05,0,0)" xlink:href="#aE"/><use transform="matrix(0.05,0,0,0.05,5.95,0)" xlink:href="#ax"/><use transform="matrix(0.05,0,0,0.05,15.949999999999998,0)" xlink:href="#av"/><use transform="matrix(0.05,0,0,0.05,25.950000000000003,0)" xlink:href="#av"/><use transform="matrix(0.05,0,0,0.05,35.95,0)" xlink:href="#aQ"/><use transform="matrix(0.05,0,0,0.05,39.900000000000006,0)" xlink:href="#av"/><use transform="matrix(0.05,0,0,0.05,49.900000000000006,0)" xlink:href="#aO"/></g><g id="w"><use transform="matrix(0.05,0,0,0.05,0,0)" xlink:href="#aB"/><use transform="matrix(0.05,0,0,0.05,9,0)" xlink:href="#aR"/><use transform="matrix(0.05,0,0,0.05,19,0)" xlink:href="#aQ"/><use transform="matrix(0.05,0,0,0.05,22.95,0)" xlink:href="#ay"/><use transform="matrix(0.05,0,0,0.05,26.899999999999995,0)" xlink:href="#aC"/></g><g id="x"><use transform="matrix(0.05,0,0,0.05,0,0)" xlink:href="#aL"/><use transform="matrix(0.05,0,0,0.05,10,0)" xlink:href="#aE"/><use transform="matrix(0.05,0,0,0.05,15.949999999999998,0)" xlink:href="#au"/><use transform="matrix(0.05,0,0,0.05,25.950000000000003,0)" xlink:href="#aB"/><use transform="matrix(0.05,0,0,0.05,34.95,0)" xlink:href="#az"/><use transform="matrix(0.05,0,0,0.05,44.95,0)" xlink:href="#aw"/><use transform="matrix(0.05,0,0,0.05,53.95,0)" xlink:href="#aw"/></g><g id="y"><use transform="matrix(0.05,0,0,0.05,0,0)" xlink:href="#at"/><use transform="matrix(0.05,0,0,0.05,12.950000000000001,0)" xlink:href="#aE"/><use transform="matrix(0.05,0,0,0.05,18.900000000000002,0)" xlink:href="#az"/><use transform="matrix(0.05,0,0,0.05,28.900000000000002,0)" xlink:href="#aH"/><use transform="matrix(0.05,0,0,0.05,38.900000000000006,0)" xlink:href="#aA"/><use transform="matrix(0.05,0,0,0.05,43.900000000000006,0)" xlink:href="#az"/></g><g id="z"><use transform="matrix(0.05,0,0,0.05,0,0)" xlink:href="#aA"/><use transform="matrix(0.05,0,0,0.05,5,0)" xlink:href="#aR"/><use transform="matrix(0.05,0,0,0.05,15,0)" xlink:href="#az"/></g><g id="A"><use transform="matrix(0.05,0,0,0.05,0,0)" xlink:href="#aB"/><use transform="matrix(0.05,0,0,0.05,9,0)" xlink:href="#au"/><use transform="matrix(0.05,0,0,0.05,19,0)" xlink:href="#av"/><use transform="matrix(0.05,0,0,0.05,29,0)" xlink:href="#aP"/><use transform="matrix(0.05,0,0,0.05,34,0)" xlink:href="#aQ"/><use transform="matrix(0.05,0,0,0.05,37.95,0)" xlink:href="#aO"/><use transform="matrix(0.05,0,0,0.05,47.95,0)" xlink:href="#ax"/><use transform="matrix(0.05,0,0,0.05,57.95,0)" xlink:href="#aE"/><use transform="matrix(0.05,0,0,0.05,63.900000000000006,0)" xlink:href="#aH"/><use transform="matrix(0.05,0,0,0.05,73.9,0)" xlink:href="#aA"/><use transform="matrix(0.05,0,0,0.05,78.9,0)" xlink:href="#aQ"/><use transform="matrix(0.05,0,0,0.05,82.85000000000001,0)" xlink:href="#au"/><use transform="matrix(0.05,0,0,0.05,92.85000000000001,0)" xlink:href="#av"/></g><g id="B"><use transform="matrix(0.05,0,0,0.05,0,0)" xlink:href="#aP"/><use transform="matrix(0.05,0,0,0.05,5,0)" xlink:href="#aQ"/><use transform="matrix(0.05,0,0,0.05,8.95,0)" xlink:href="#ay"/><use transform="matrix(0.05,0,0,0.05,12.899999999999999,0)" xlink:href="#az"/></g><g id="C"><use transform="matrix(0.05,0,0,0.05,0,0)" xlink:href="#aP"/><use transform="matrix(0.05,0,0,0.05,5,0)" xlink:href="#aE"/><use transform="matrix(0.05,0,0,0.05,10.95,0)" xlink:href="#au"/><use transform="matrix(0.05,0,0,0.05,20.95,0)" xlink:href="#aF"/></g><g id="D"><use transform="matrix(0.05,0,0,0.05,0,0)" xlink:href="#aA"/><use transform="matrix(0.05,0,0,0.05,5,0)" xlink:href="#az"/><use transform="matrix(0.05,0,0,0.05,15,0)" xlink:href="#aF"/><use transform="matrix(0.05,0,0,0.05,29.950000000000003,0)" xlink:href="#aL"/><use transform="matrix(0.05,0,0,0.05,39.95,0)" xlink:href="#ay"/><use transform="matrix(0.05,0,0,0.05,43.900000000000006,0)" xlink:href="#aH"/><use transform="matrix(0.05,0,0,0.05,53.900000000000006,0)" xlink:href="#aA"/><use transform="matrix(0.05,0,0,0.05,58.900000000000006,0)" xlink:href="#az"/><use transform="matrix(0.05,0,0,0.05,68.9,0)" xlink:href="#aM"/></g><g id="E"><use transform="matrix(0.05,0,0,0.05,0,0)" xlink:href="#aP"/><use transform="matrix(0.05,0,0,0.05,5,0)" xlink:href="#aQ"/><use transform="matrix(0.05,0,0,0.05,8.95,0)" xlink:href="#ay"/><use transform="matrix(0.05,0,0,0.05,12.899999999999999,0)" xlink:href="#az"/><use transform="matrix(0.05,0,0,0.05,22.9,0)" xlink:href="#aw"/></g><path d="M103-251c84 0 111 97 45 133-19 10-37 24-39 52H78c0-63 77-55 77-114 0-30-21-42-52-43-32 0-53 17-56 46l-32-2c7-45 34-72 88-72zM77 0v-35h34V0H77" id="aX"/><g id="F"><use transform="matrix(0.05,0,0,0.05,0,0)" xlink:href="#aC"/><use transform="matrix(0.05,0,0,0.05,10,0)" xlink:href="#aQ"/><use transform="matrix(0.05,0,0,0.05,13.949999999999998,0)" xlink:href="#aP"/><use transform="matrix(0.05,0,0,0.05,18.6,0)" xlink:href="#aP"/><use transform="matrix(0.05,0,0,0.05,23.6,0)" xlink:href="#az"/><use transform="matrix(0.05,0,0,0.05,33.6,0)" xlink:href="#aE"/><use transform="matrix(0.05,0,0,0.05,39.550000000000004,0)" xlink:href="#aX"/></g><path d="M206 0h-36l-40-164L89 0H53L-1-190h32L70-26l43-164h34l41 164 42-164h31" id="aY"/><g id="G"><use transform="matrix(0.05,0,0,0.05,0,0)" xlink:href="#au"/><use transform="matrix(0.05,0,0,0.05,10,0)" xlink:href="#aN"/><use transform="matrix(0.05,0,0,0.05,19,0)" xlink:href="#az"/><use transform="matrix(0.05,0,0,0.05,29,0)" xlink:href="#aE"/><use transform="matrix(0.05,0,0,0.05,34.95,0)" xlink:href="#aY"/><use transform="matrix(0.05,0,0,0.05,47.900000000000006,0)" xlink:href="#aE"/><use transform="matrix(0.05,0,0,0.05,53.85,0)" xlink:href="#aQ"/><use transform="matrix(0.05,0,0,0.05,57.80000000000001,0)" xlink:href="#aA"/><use transform="matrix(0.05,0,0,0.05,62.80000000000001,0)" xlink:href="#az"/></g><g id="H"><use transform="matrix(0.05,0,0,0.05,0,0)" xlink:href="#aC"/><use transform="matrix(0.05,0,0,0.05,10,0)" xlink:href="#aw"/><use transform="matrix(0.05,0,0,0.05,19,0)" xlink:href="#aA"/></g><g id="I"><use transform="matrix(0.05,0,0,0.05,0,0)" xlink:href="#aY"/><use transform="matrix(0.05,0,0,0.05,12.950000000000001,0)" xlink:href="#aQ"/><use transform="matrix(0.05,0,0,0.05,16.900000000000002,0)" xlink:href="#aA"/><use transform="matrix(0.05,0,0,0.05,21.900000000000002,0)" xlink:href="#aR"/></g><g id="J"><use transform="matrix(0.05,0,0,0.05,0,0)" xlink:href="#aA"/><use transform="matrix(0.05,0,0,0.05,5,0)" xlink:href="#aR"/><use transform="matrix(0.05,0,0,0.05,15,0)" xlink:href="#az"/></g><g id="K"><use transform="matrix(0.05,0,0,0.05,0,0)" xlink:href="#aw"/><use transform="matrix(0.05,0,0,0.05,9,0)" xlink:href="#aA"/><use transform="matrix(0.05,0,0,0.05,14,0)" xlink:href="#aH"/><use transform="matrix(0.05,0,0,0.05,24,0)" xlink:href="#aO"/><use transform="matrix(0.05,0,0,0.05,34,0)" xlink:href="#az"/><use transform="matrix(0.05,0,0,0.05,44,0)" xlink:href="#aC"/></g><g id="L"><use transform="matrix(0.05,0,0,0.05,0,0)" xlink:href="#aP"/><use transform="matrix(0.05,0,0,0.05,5,0)" xlink:href="#aQ"/><use transform="matrix(0.05,0,0,0.05,8.95,0)" xlink:href="#ay"/><use transform="matrix(0.05,0,0,0.05,12.899999999999999,0)" xlink:href="#az"/></g><g id="M"><use transform="matrix(0.05,0,0,0.05,0,0)" xlink:href="#aY"/><use transform="matrix(0.05,0,0,0.05,12.950000000000001,0)" xlink:href="#aH"/><use transform="matrix(0.05,0,0,0.05,22.950000000000003,0)" xlink:href="#aA"/><use transform="matrix(0.05,0,0,0.05,27.950000000000003,0)" xlink:href="#aB"/><use transform="matrix(0.05,0,0,0.05,36.95,0)" xlink:href="#aR"/></g><g id="N"><use transform="matrix(0.05,0,0,0.05,0,0)" xlink:href="#aP"/><use transform="matrix(0.05,0,0,0.05,5,0)" xlink:href="#au"/><use transform="matrix(0.05,0,0,0.05,15,0)" xlink:href="#aE"/></g><g id="O"><use transform="matrix(0.05,0,0,0.05,0,0)" xlink:href="#aB"/><use transform="matrix(0.05,0,0,0.05,9,0)" xlink:href="#aR"/><use transform="matrix(0.05,0,0,0.05,19,0)" xlink:href="#aH"/><use transform="matrix(0.05,0,0,0.05,29,0)" xlink:href="#av"/><use transform="matrix(0.05,0,0,0.05,39,0)" xlink:href="#aO"/><use transform="matrix(0.05,0,0,0.05,49,0)" xlink:href="#az"/><use transform="matrix(0.05,0,0,0.05,59,0)" xlink:href="#aw"/></g><g id="P"><use transform="matrix(0.05,0,0,0.05,0,0)" xlink:href="#aF"/><use transform="matrix(0.05,0,0,0.05,14.950000000000001,0)" xlink:href="#az"/><use transform="matrix(0.05,0,0,0.05,24.950000000000003,0)" xlink:href="#aE"/><use transform="matrix(0.05,0,0,0.05,30.900000000000002,0)" xlink:href="#aO"/><use transform="matrix(0.05,0,0,0.05,40.900000000000006,0)" xlink:href="#az"/></g><g id="Q"><use transform="matrix(0.05,0,0,0.05,0,0)" xlink:href="#aH"/><use transform="matrix(0.05,0,0,0.05,10,0)" xlink:href="#ay"/><use transform="matrix(0.05,0,0,0.05,13.949999999999998,0)" xlink:href="#ay"/></g><g id="R"><use transform="matrix(0.05,0,0,0.05,0,0)" xlink:href="#aQ"/><use transform="matrix(0.05,0,0,0.05,3.95,0)" xlink:href="#av"/><use transform="matrix(0.05,0,0,0.05,13.949999999999998,0)" xlink:href="#aC"/><use transform="matrix(0.05,0,0,0.05,23.95,0)" xlink:href="#aQ"/><use transform="matrix(0.05,0,0,0.05,27.899999999999995,0)" xlink:href="#aN"/><use transform="matrix(0.05,0,0,0.05,36.9,0)" xlink:href="#aQ"/><use transform="matrix(0.05,0,0,0.05,40.85,0)" xlink:href="#aC"/><use transform="matrix(0.05,0,0,0.05,50.85,0)" xlink:href="#ax"/><use transform="matrix(0.05,0,0,0.05,60.85,0)" xlink:href="#aH"/><use transform="matrix(0.05,0,0,0.05,70.85,0)" xlink:href="#ay"/></g><g id="S"><use transform="matrix(0.05,0,0,0.05,0,0)" xlink:href="#aF"/><use transform="matrix(0.05,0,0,0.05,14.950000000000001,0)" xlink:href="#az"/><use transform="matrix(0.05,0,0,0.05,24.950000000000003,0)" xlink:href="#aF"/><use transform="matrix(0.05,0,0,0.05,39.900000000000006,0)" xlink:href="#aI"/><use transform="matrix(0.05,0,0,0.05,48.900000000000006,0)" xlink:href="#aN"/></g><g id="T"><use transform="matrix(0.05,0,0,0.05,0,0)" xlink:href="#aw"/><use transform="matrix(0.05,0,0,0.05,9,0)" xlink:href="#aA"/><use transform="matrix(0.05,0,0,0.05,14,0)" xlink:href="#au"/><use transform="matrix(0.05,0,0,0.05,24,0)" xlink:href="#aE"/><use transform="matrix(0.05,0,0,0.05,29.950000000000003,0)" xlink:href="#az"/><use transform="matrix(0.05,0,0,0.05,39.95,0)" xlink:href="#aw"/></g><g id="U"><use transform="matrix(0.05,0,0,0.05,0,0)" xlink:href="#aE"/><use transform="matrix(0.05,0,0,0.05,5.95,0)" xlink:href="#ax"/><use transform="matrix(0.05,0,0,0.05,15.949999999999998,0)" xlink:href="#av"/></g><g id="V"><use transform="matrix(0.05,0,0,0.05,0,0)" xlink:href="#aB"/><use transform="matrix(0.05,0,0,0.05,9,0)" xlink:href="#aR"/><use transform="matrix(0.05,0,0,0.05,19,0)" xlink:href="#az"/><use transform="matrix(0.05,0,0,0.05,29,0)" xlink:href="#aB"/><use transform="matrix(0.05,0,0,0.05,38,0)" xlink:href="#aI"/></g><g id="W"><use transform="matrix(0.05,0,0,0.05,0,0)" xlink:href="#aB"/><use transform="matrix(0.05,0,0,0.05,9,0)" xlink:href="#au"/><use transform="matrix(0.05,0,0,0.05,19,0)" xlink:href="#aF"/><use transform="matrix(0.05,0,0,0.05,33.95,0)" xlink:href="#aF"/><use transform="matrix(0.05,0,0,0.05,48.900000000000006,0)" xlink:href="#aH"/><use transform="matrix(0.05,0,0,0.05,58.900000000000006,0)" xlink:href="#av"/><use transform="matrix(0.05,0,0,0.05,68.9,0)" xlink:href="#aC"/></g><g id="X"><use transform="matrix(0.05,0,0,0.05,0,0)" xlink:href="#at"/><use transform="matrix(0.05,0,0,0.05,12.950000000000001,0)" xlink:href="#aR"/><use transform="matrix(0.05,0,0,0.05,22.950000000000003,0)" xlink:href="#az"/><use transform="matrix(0.05,0,0,0.05,32.95,0)" xlink:href="#aB"/><use transform="matrix(0.05,0,0,0.05,41.95,0)" xlink:href="#aI"/></g><g id="Y"><use transform="matrix(0.05,0,0,0.05,0,0)" xlink:href="#aB"/><use transform="matrix(0.05,0,0,0.05,9,0)" xlink:href="#au"/><use transform="matrix(0.05,0,0,0.05,19,0)" xlink:href="#aF"/><use transform="matrix(0.05,0,0,0.05,33.95,0)" xlink:href="#aF"/><use transform="matrix(0.05,0,0,0.05,48.900000000000006,0)" xlink:href="#aH"/><use transform="matrix(0.05,0,0,0.05,58.900000000000006,0)" xlink:href="#av"/><use transform="matrix(0.05,0,0,0.05,68.9,0)" xlink:href="#aC"/></g><g id="Z"><use transform="matrix(0.05,0,0,0.05,0,0)" xlink:href="#aY"/><use transform="matrix(0.05,0,0,0.05,12.950000000000001,0)" xlink:href="#aH"/><use transform="matrix(0.05,0,0,0.05,22.950000000000003,0)" xlink:href="#aw"/></g><g id="aa"><use transform="matrix(0.05,0,0,0.05,0,0)" xlink:href="#aw"/><use transform="matrix(0.05,0,0,0.05,9,0)" xlink:href="#ax"/><use transform="matrix(0.05,0,0,0.05,19,0)" xlink:href="#aB"/><use transform="matrix(0.05,0,0,0.05,28,0)" xlink:href="#aB"/><use transform="matrix(0.05,0,0,0.05,37,0)" xlink:href="#az"/><use transform="matrix(0.05,0,0,0.05,47,0)" xlink:href="#aw"/><use transform="matrix(0.05,0,0,0.05,56,0)" xlink:href="#aw"/><use transform="matrix(0.05,0,0,0.05,65,0)" xlink:href="#aP"/><use transform="matrix(0.05,0,0,0.05,70,0)" xlink:href="#ax"/><use transform="matrix(0.05,0,0,0.05,80,0)" xlink:href="#ay"/></g><g id="ab"><use transform="matrix(0.05,0,0,0.05,0,0)" xlink:href="#aE"/><use transform="matrix(0.05,0,0,0.05,5.95,0)" xlink:href="#az"/><use transform="matrix(0.05,0,0,0.05,15.949999999999998,0)" xlink:href="#ay"/><use transform="matrix(0.05,0,0,0.05,19.9,0)" xlink:href="#au"/><use transform="matrix(0.05,0,0,0.05,29.899999999999995,0)" xlink:href="#aH"/><use transform="matrix(0.05,0,0,0.05,39.9,0)" xlink:href="#aC"/></g><path d="M137-103V0h-34v-103L8-248h37l75 118 75-118h37" id="aZ"/><g id="ac"><use transform="matrix(0.05,0,0,0.05,0,0)" xlink:href="#aZ"/><use transform="matrix(0.05,0,0,0.05,10.35,0)" xlink:href="#az"/><use transform="matrix(0.05,0,0,0.05,20.35,0)" xlink:href="#aw"/></g><g id="ad"><use transform="matrix(0.05,0,0,0.05,0,0)" xlink:href="#aw"/><use transform="matrix(0.05,0,0,0.05,9,0)" xlink:href="#az"/><use transform="matrix(0.05,0,0,0.05,19,0)" xlink:href="#av"/><use transform="matrix(0.05,0,0,0.05,29,0)" xlink:href="#aC"/></g><path d="M87 75C49 33 22-17 22-94c0-76 28-126 65-167h31c-38 41-64 92-64 168S80 34 118 75H87" id="ba"/><g id="ae"><use transform="matrix(0.05,0,0,0.05,0,0)" xlink:href="#aw"/><use transform="matrix(0.05,0,0,0.05,9,0)" xlink:href="#aQ"/><use transform="matrix(0.05,0,0,0.05,12.949999999999998,0)" xlink:href="#aO"/><use transform="matrix(0.05,0,0,0.05,22.95,0)" xlink:href="#av"/><use transform="matrix(0.05,0,0,0.05,32.95,0)" xlink:href="#aH"/><use transform="matrix(0.05,0,0,0.05,42.95,0)" xlink:href="#ay"/><use transform="matrix(0.05,0,0,0.05,46.900000000000006,0)" xlink:href="#ba"/><use transform="matrix(0.05,0,0,0.05,52.85,0)" xlink:href="#au"/><use transform="matrix(0.05,0,0,0.05,62.85,0)" xlink:href="#aE"/></g><g id="af"><use transform="matrix(0.05,0,0,0.05,0,0)" xlink:href="#aI"/><use transform="matrix(0.05,0,0,0.05,9,0)" xlink:href="#aQ"/><use transform="matrix(0.05,0,0,0.05,12.949999999999998,0)" xlink:href="#ay"/><use transform="matrix(0.05,0,0,0.05,16.9,0)" xlink:href="#ay"/></g><g id="ag"><use transform="matrix(0.05,0,0,0.05,0,0)" xlink:href="#aH"/><use transform="matrix(0.05,0,0,0.05,10,0)" xlink:href="#av"/><use transform="matrix(0.05,0,0,0.05,20,0)" xlink:href="#aC"/></g><path d="M33-261c38 41 65 92 65 168S71 34 33 75H2C39 34 66-17 66-93S39-220 2-261h31" id="bb"/><g id="ah"><use transform="matrix(0.05,0,0,0.05,0,0)" xlink:href="#aE"/><use transform="matrix(0.05,0,0,0.05,5.95,0)" xlink:href="#az"/><use transform="matrix(0.05,0,0,0.05,15.949999999999998,0)" xlink:href="#aw"/><use transform="matrix(0.05,0,0,0.05,24.95,0)" xlink:href="#aA"/><use transform="matrix(0.05,0,0,0.05,29.950000000000003,0)" xlink:href="#aH"/><use transform="matrix(0.05,0,0,0.05,39.95,0)" xlink:href="#aE"/><use transform="matrix(0.05,0,0,0.05,45.900000000000006,0)" xlink:href="#aA"/><use transform="matrix(0.05,0,0,0.05,50.900000000000006,0)" xlink:href="#bb"/></g><g id="ai"><use transform="matrix(0.05,0,0,0.05,0,0)" xlink:href="#aJ"/><use transform="matrix(0.05,0,0,0.05,12,0)" xlink:href="#ay"/><use transform="matrix(0.05,0,0,0.05,15.949999999999998,0)" xlink:href="#ay"/></g><g id="aj"><use transform="matrix(0.05,0,0,0.05,0,0)" xlink:href="#aP"/><use transform="matrix(0.05,0,0,0.05,5,0)" xlink:href="#aQ"/><use transform="matrix(0.05,0,0,0.05,8.95,0)" xlink:href="#ay"/><use transform="matrix(0.05,0,0,0.05,12.899999999999999,0)" xlink:href="#az"/><use transform="matrix(0.05,0,0,0.05,22.9,0)" xlink:href="#aw"/></g><g id="ak"><use transform="matrix(0.05,0,0,0.05,0,0)" xlink:href="#aw"/><use transform="matrix(0.05,0,0,0.05,9,0)" xlink:href="#ax"/><use transform="matrix(0.05,0,0,0.05,19,0)" xlink:href="#aB"/><use transform="matrix(0.05,0,0,0.05,28,0)" xlink:href="#aB"/><use transform="matrix(0.05,0,0,0.05,37,0)" xlink:href="#az"/><use transform="matrix(0.05,0,0,0.05,47,0)" xlink:href="#aw"/><use transform="matrix(0.05,0,0,0.05,56,0)" xlink:href="#aw"/><use transform="matrix(0.05,0,0,0.05,65,0)" xlink:href="#aP"/><use transform="matrix(0.05,0,0,0.05,70,0)" xlink:href="#ax"/><use transform="matrix(0.05,0,0,0.05,80,0)" xlink:href="#ay"/><use transform="matrix(0.05,0,0,0.05,83.95,0)" xlink:href="#ay"/><use transform="matrix(0.05,0,0,0.05,87.9,0)" xlink:href="#aK"/></g><g id="al"><use transform="matrix(0.05,0,0,0.05,0,0)" xlink:href="#aB"/><use transform="matrix(0.05,0,0,0.05,9,0)" xlink:href="#aE"/><use transform="matrix(0.05,0,0,0.05,14.949999999999998,0)" xlink:href="#az"/><use transform="matrix(0.05,0,0,0.05,24.95,0)" xlink:href="#aH"/><use transform="matrix(0.05,0,0,0.05,34.95,0)" xlink:href="#aA"/><use transform="matrix(0.05,0,0,0.05,39.95,0)" xlink:href="#az"/><use transform="matrix(0.05,0,0,0.05,49.95,0)" xlink:href="#aC"/></g><g id="am"><use transform="matrix(0.05,0,0,0.05,0,0)" xlink:href="#aJ"/><use transform="matrix(0.05,0,0,0.05,12,0)" xlink:href="#av"/><use transform="matrix(0.05,0,0,0.05,22,0)" xlink:href="#aC"/></g><g id="an"><use transform="matrix(0.05,0,0,0.05,0,0)" xlink:href="#az"/><use transform="matrix(0.05,0,0,0.05,10,0)" xlink:href="#aN"/><use transform="matrix(0.05,0,0,0.05,19,0)" xlink:href="#az"/><use transform="matrix(0.05,0,0,0.05,29,0)" xlink:href="#aE"/><use transform="matrix(0.05,0,0,0.05,34.95,0)" xlink:href="#aK"/></g><g id="ao"><use transform="matrix(0.05,0,0,0.05,0,0)" xlink:href="#au"/><use transform="matrix(0.05,0,0,0.05,10,0)" xlink:href="#aA"/><use transform="matrix(0.05,0,0,0.05,15,0)" xlink:href="#aR"/><use transform="matrix(0.05,0,0,0.05,25,0)" xlink:href="#az"/><use transform="matrix(0.05,0,0,0.05,35,0)" xlink:href="#aE"/></g><g id="ap"><use transform="matrix(0.05,0,0,0.05,0,0)" xlink:href="#aw"/><use transform="matrix(0.05,0,0,0.05,9,0)" xlink:href="#ax"/><use transform="matrix(0.05,0,0,0.05,19,0)" xlink:href="#aL"/><use transform="matrix(0.05,0,0,0.05,29,0)" xlink:href="#aL"/><use transform="matrix(0.05,0,0,0.05,39,0)" xlink:href="#au"/><use transform="matrix(0.05,0,0,0.05,49,0)" xlink:href="#aE"/><use transform="matrix(0.05,0,0,0.05,54.95,0)" xlink:href="#aA"/><use transform="matrix(0.05,0,0,0.05,59.95,0)" xlink:href="#az"/><use transform="matrix(0.05,0,0,0.05,69.95,0)" xlink:href="#aC"/></g><g id="aq"><use transform="matrix(0.05,0,0,0.05,0,0)" xlink:href="#aG"/><use transform="matrix(0.05,0,0,0.05,10,0)" xlink:href="#aH"/><use transform="matrix(0.05,0,0,0.05,20,0)" xlink:href="#aB"/><use transform="matrix(0.05,0,0,0.05,29,0)" xlink:href="#aI"/><use transform="matrix(0.05,0,0,0.05,38,0)" xlink:href="#az"/><use transform="matrix(0.05,0,0,0.05,48,0)" xlink:href="#av"/><use transform="matrix(0.05,0,0,0.05,58,0)" xlink:href="#aC"/></g><path d="M190 0L58-211 59 0H30v-248h39L202-35l-2-213h31V0h-41" id="bc"/><g id="ar"><use transform="matrix(0.05,0,0,0.05,0,0)" xlink:href="#bc"/><use transform="matrix(0.05,0,0,0.05,12.950000000000001,0)" xlink:href="#au"/></g><use transform="matrix(0.05,0,0,0.05,0,0)" xlink:href="#aJ" id="as"/></defs></g></svg>